<?xml version="1.0" encoding="UTF-8"?>
<svg width="512" height="512" enable-background="new 0 0 511.5 511.5" version="1.1" viewBox="0 0 511.5 511.5" xmlns="http://www.w3.org/2000/svg"><g transform="translate(0 164.95)"><path d="m255.75 7.5h-236.25c-6.627 0-12 5.373-12 12v142.61c0 6.627 5.373 12 12 12h181.86c3.968 0 7.679-1.961 9.915-5.24l34.561-50.689c4.764-6.987 15.066-6.987 19.829 0l34.561 50.689c2.235 3.278 5.947 5.24 9.915 5.24h181.86c6.627 0 12-5.373 12-12v-142.61c0-6.627-5.373-12-12-12z" fill="#f3f0f3"/><path d="m202.43 41.933h-148.06c-5.35 0-9.687 4.337-9.687 9.687v78.37c0 5.35 4.337 9.687 9.687 9.687h125.47c3.203 0 6.199-1.583 8.004-4.23l22.584-33.123c1.097-1.609 1.683-3.51 1.683-5.457v-45.247c-1e-3 -5.35-4.338-9.687-9.688-9.687z" fill="#d83131"/><path d="m309.07 41.933h148.06c5.35 0 9.687 4.337 9.687 9.687v78.37c0 5.35-4.337 9.687-9.687 9.687h-125.47c-3.203 0-6.199-1.583-8.004-4.23l-22.584-33.123c-1.097-1.609-1.683-3.51-1.683-5.457v-45.247c0-5.35 4.337-9.687 9.687-9.687z" fill="#0078c8"/><path d="m189.01 181.61h12.353c6.453 0 12.476-3.183 16.111-8.515l34.561-50.69c1.209-1.773 3.003-1.965 3.718-1.965s2.509 0.191 3.718 1.965l34.561 50.689c3.636 5.332 9.658 8.515 16.111 8.515h181.86c10.752 0 19.5-8.748 19.5-19.5v-142.61c0-10.752-8.748-19.5-19.5-19.5h-472.5c-10.752 0-19.5 8.748-19.5 19.5v142.61c0 10.752 8.748 19.5 19.5 19.5h22.477zm307.49-19.499c0 2.481-2.019 4.5-4.5 4.5h-181.86c-1.489 0-2.879-0.734-3.718-1.965l-34.561-50.689c-3.635-5.332-9.658-8.516-16.111-8.516s-12.477 3.184-16.111 8.515l-34.561 50.689c-0.839 1.23-2.229 1.965-3.718 1.965h-181.86c-2.481 0-4.5-2.019-4.5-4.5v-142.61c0-2.481 2.019-4.5 4.5-4.5h472.5c2.481 0 4.5 2.019 4.5 4.5z"/></g></svg>
